<svg xmlns="http://www.w3.org/2000/svg" width="4106" height="3765"><path d="M2023.125 1468.75c1.5.06 1.5.06 3.03.13 91.41 4.02 183.3 20.69 322.85 88.12.89.53 1.78 1.06 2.69 1.61 12.76 7.67 25.14 15.83 37.31 24.39.76.54 1.52 1.07 2.31 1.63 10.34 7.27 20.26 14.92 30 22.98 2.22 1.83 4.48 3.61 6.75 5.39 10.81 8.64 21.1 17.92 31.2 27.38 1.88 1.75 3.76 3.5 5.65 5.25 21.6 20.09 21.6 20.09 30.48 30.55 1.79 2.03 3.68 3.92 5.61 5.82 3.21 3.17 6.21 6.46 9.16 9.88 2.03 2.34 4.12 4.64 6.21 6.93 3.88 4.3 7.55 8.72 11.18 13.22 2.72 3.31 5.52 6.54 8.32 9.78 5.41 6.27 10.56 12.71 15.63 19.26 1.62 2.09 3.25 4.17 4.87 6.25 11.08 14.17 21.86 28.53 32.35 43.13 2.13 2.96 4.27 5.91 6.42 8.85 6.98 9.53 13.64 19.24 20.12 29.11 3.08 4.67 6.2 9.26 9.52 13.75 5.43 7.4 10.39 15.1 15.4 22.78l3.09 4.71 8.73 13.35 2.15 3.3c3.17 4.86 6.33 9.72 9.48 14.59 1.36 2.11 2.73 4.21 4.1 6.31 5.62 8.67 11.19 17.37 16.73 26.09 6.47 10.18 12.97 20.34 19.48 30.5l6.24 9.75c6.17 9.66 12.35 19.31 18.59 28.93 2.72 4.19 5.42 8.39 8.1 12.6.69 1.08 1.39 2.16 2.1 3.28 1.34 2.1 2.68 4.2 4.02 6.31 3.88 6.08 7.84 12.11 11.85 18.11 3.72 5.56 7.39 11.14 11.05 16.72 1.24 1.88 2.47 3.76 3.71 5.64 1.88 2.87 3.77 5.74 5.65 8.61 7.64 11.66 15.42 23.19 23.52 34.54 2.63 3.7 5.18 7.46 7.73 11.22 26.34 38.66 54.18 76.53 83.81 112.74 3.47 4.25 6.88 8.55 10.25 12.89 4.21 5.41 8.6 10.64 13.09 15.82 3.06 3.53 6.04 7.1 8.97 10.74 3.8 4.68 7.81 9.11 11.89 13.54 2.49 2.78 4.84 5.62 7.17 8.52 3.04 3.77 6.19 7.24 9.66 10.61 1.66 1.65 3.19 3.36 4.72 5.14 5.17 5.99 10.64 11.72 16.06 17.5 1.74 1.85 3.46 3.72 5.18 5.59 9.64 10.43 19.66 20.48 29.7 30.54 1.09 1.09 1.09 1.09 2.2 2.21l6.36 6.36 1.91 1.91c3.81 3.79 7.74 7.4 11.82 10.9 2 1.74 3.86 3.58 5.71 5.49 3.1 3.15 6.31 6.07 9.66 8.95 3 2.63 5.91 5.34 8.84 8.05 5.75 5.33 11.58 10.53 17.57 15.6 7.08 6 13.97 12.16 20.72 18.52 3.77 3.55 7.59 7 11.52 10.38 2.38 2.12 4.59 4.39 6.82 6.67 1.74 1.71 3.53 3.28 5.38 4.85 5.49 4.78 10.6 9.95 15.74 15.1l3.21 3.21 6.69 6.69c2.84 2.85 5.68 5.68 8.52 8.52 2.21 2.2 4.41 4.41 6.62 6.62l3.13 3.13c5.23 5.21 10.36 10.46 15.16 16.06 1.73 2.01 3.53 3.95 5.35 5.87.67.7 1.34 1.41 2.03 2.14.67.7 1.34 1.41 2.04 2.14 5.12 5.39 10.14 10.86 15 16.5.48.57.97 1.13 1.47 1.71 1.41 1.64 2.81 3.28 4.21 4.92 1.04 1.21 2.09 2.43 3.13 3.65a2304.27 2304.27 0 0 0 6.31 7.35c6.06 7.04 12.02 14.15 17.88 21.37 1 1.23 2.01 2.45 3.02 3.68 6.45 7.85 12.69 15.83 18.75 24 2.33 3.13 4.69 6.24 7.08 9.33 7.72 10.02 15.13 20.15 22.2 30.65 2.57 3.81 5.24 7.55 7.95 11.28 6.34 8.79 12.15 17.93 18 27.06.49.76.98 1.53 1.49 2.32 44.61 69.28 80.64 143.6 120.51 267.68.17.66.35 1.33.54 2.01 9.4 34.79 16.06 70.23 20.46 105.99.15 1.24.3 2.48.46 3.76 9.42 78.97 5.23 160.13-14.46 237.24-.3 1.15-.59 2.31-.89 3.5-13.06 51.34-33.2 100.87-60.11 146.5-.53.9-1.06 1.8-1.61 2.73-5.85 9.95-11.82 19.78-18.39 29.27-.49.71-.98 1.42-1.48 2.15a602.805 602.805 0 0 1-26.52 35.85c-.8 1-1.6 2.01-2.43 3.04-14.79 18.3-30.85 35.31-47.45 51.96-.59.59-1.18 1.18-1.78 1.79-6.27 6.29-12.55 12.47-19.34 18.21-1.17 1.02-2.34 2.04-3.5 3.07-23.81 20.81-49 39.69-75.5 56.93-.69.45-1.38.9-2.09 1.36-69.66 45.21-147.65 77.34-256.74 93.41-1.51.16-3.01.32-4.51.49-19.07 2.12-38.16 2.08-57.33 2.06-3.66-.01-7.32 0-10.97.02-32.54.16-64.6-1.66-96.86-6.03-.94-.12-1.88-.25-2.85-.38-22.01-2.93-43.86-6.71-65.65-10.93-.87-.17-1.74-.34-2.63-.51-71.58-13.9-141.81-33.84-212.01-53.38-90.7-25.26-181.58-50.22-404.36-82.11l-2.58-.18c-42.53-2.99-85.75-3.56-128.26 0-2.28.19-4.55.37-6.82.55-43.14 3.52-85.88 10.35-128.34 18.63-1.27.25-1.27.25-2.56.5-77.64 15.16-153.99 36.45-230.22 57.39-96.32 26.47-192.96 52.66-647.22 26.11-.91-.41-1.82-.82-2.76-1.25-14.21-6.46-27.79-13.85-41.24-21.75-.8-.47-1.6-.93-2.41-1.41-18.67-10.98-36.47-23.35-53.59-36.59-.6-.46-1.2-.92-1.81-1.39-11.76-9.03-23-18.63-33.97-28.6-2.05-1.85-4.13-3.65-6.22-5.45-4.06-3.52-7.8-7.34-11.57-11.16-2.06-2.03-4.16-3.92-6.37-5.77-4-3.42-7.48-7.25-10.99-11.15-2.7-2.99-5.45-5.9-8.33-8.73-3.79-3.75-7.28-7.7-10.74-11.75-.91-1.04-1.82-2.08-2.72-3.13-7.03-8.09-13.75-16.38-20.28-24.87-.64-.81-1.27-1.63-1.91-2.47-7.71-9.97-15.3-19.91-22.09-30.53-.97-1.47-1.94-2.93-2.91-4.39-25.59-38.74-47.15-79.99-63.09-123.61-.24-.65-.48-1.31-.73-1.98-23.96-65.6-38.27-135.98-38.48-205.96-.01-1.49-.01-2.97-.02-4.46-.02-4.72-.02-9.44-.03-14.16V3152c0-24.03.24-47.9 3-71.8.27-2.31.52-4.62.78-6.93 6.9-62.29 21.28-123.15 41.8-182.32.63-1.81 1.25-3.62 1.87-5.43 18.74-54.31 43.33-107.55 72.56-157 2.7-4.57 5.31-9.18 7.87-13.83 4.59-8.25 9.65-16.19 14.74-24.13 1.69-2.64 3.36-5.3 5.02-7.95a703.674 703.674 0 0 1 22.97-34.29c1.56-2.19 3.1-4.4 4.63-6.61 6.78-9.75 13.9-19.22 21.13-28.64 2.89-3.76 5.74-7.55 8.56-11.37 8.99-12.13 18.71-23.68 28.5-35.17 2.8-3.3 5.55-6.65 8.26-10.03 4.38-5.38 9.06-10.44 13.79-15.51 2.16-2.31 4.27-4.66 6.34-7.05 4.18-4.83 8.51-9.51 12.84-14.21 1.02-1.1 2.03-2.21 3.05-3.32 9.94-10.84 20.27-21.28 30.68-31.67 2.76-2.76 5.52-5.52 8.27-8.28 1.78-1.78 3.56-3.56 5.34-5.33.81-.82 1.62-1.63 2.46-2.47 4.23-4.22 8.55-8.28 13.08-12.18 2.03-1.75 3.99-3.57 5.93-5.42l2.14-2.02c.71-.67 1.42-1.35 2.15-2.04 7.58-7.21 15.41-14.09 23.37-20.87 5.04-4.31 10-8.67 14.91-13.13 2.01-1.81 4.04-3.6 6.09-5.37 3.91-3.41 7.74-6.92 11.55-10.44 3.25-2.99 6.53-5.94 9.82-8.88 3.66-3.28 7.17-6.66 10.58-10.19 1.88-1.84 3.82-3.55 5.81-5.26 4.28-3.74 8.33-7.68 12.34-11.7.72-.73 1.45-1.45 2.2-2.2l4.57-4.57c2.31-2.32 4.63-4.63 6.94-6.94 1.5-1.49 2.99-2.99 4.48-4.48l2.06-2.06c3.92-3.93 7.65-7.97 11.26-12.18 2.06-2.36 4.27-4.54 6.52-6.73 3.45-3.42 6.72-6.91 9.89-10.61 2.96-3.36 6.04-6.62 9.11-9.89 4.76-5.09 9.47-10.19 14-15.5 1.95-2.29 3.91-4.58 5.87-6.87.52-.61 1.04-1.22 1.58-1.85 3.02-3.54 6.1-7.02 9.23-10.47 3.8-4.18 7.38-8.5 10.93-12.89 2.59-3.17 5.23-6.3 7.89-9.42 4.9-5.78 9.72-11.62 14.5-17.5l3.06-3.75c7.08-8.67 14.06-17.42 20.94-26.25.53-.68 1.06-1.37 1.61-2.07 2.92-3.75 5.84-7.51 8.76-11.27 2.43-3.13 4.87-6.26 7.31-9.39 6.53-8.36 12.98-16.76 19.32-25.27.9-1.21 1.81-2.41 2.72-3.62 7.22-9.6 14.36-19.26 21.48-28.93 1.81-2.47 3.63-4.93 5.44-7.39 6-8.11 11.96-16.25 17.8-24.48 2.95-4.15 5.94-8.27 8.93-12.39 4.75-6.57 9.45-13.17 14.11-19.8 3.6-5.12 7.27-10.2 10.95-15.26 5.03-6.93 9.89-13.95 14.7-21.03 3.64-5.35 7.37-10.62 11.18-15.85 5.71-7.85 11.27-15.8 16.8-23.78 5.44-7.84 10.93-15.65 16.45-23.44l5.93-8.39c1-1.42 2-2.85 3.01-4.27 2.49-3.53 4.98-7.05 7.46-10.58 5.67-8.06 11.4-16.08 17.18-24.06 3.64-5.03 7.23-10.09 10.79-15.17 4.83-6.87 9.79-13.65 14.79-20.41 3.39-4.58 6.75-9.19 10.07-13.82 5.92-8.26 12-16.37 18.18-24.43 4.5-5.87 8.91-11.8 13.27-17.77 5.15-7.04 10.48-13.89 15.96-20.66 2.64-3.26 5.19-6.57 7.73-9.91 5.86-7.65 11.96-15.1 18.07-22.56.82-1.01 1.65-2.03 2.51-3.07 1.46-1.79 2.92-3.58 4.39-5.37 1.41-1.72 2.82-3.45 4.22-5.19 5.66-6.96 11.47-13.77 17.33-20.57 1.52-1.77 3.04-3.56 4.56-5.35 5.95-7.01 12.05-13.84 18.32-20.58 2.06-2.22 4.07-4.45 6.04-6.74 11.58-13.34 24.12-25.78 36.61-38.25 2.43-2.42 4.85-4.84 7.26-7.26 2.35-2.36 4.71-4.71 7.06-7.06 1.28-1.28 1.28-1.28 2.59-2.6 4.35-4.33 8.76-8.52 13.42-12.52 2.39-2.04 4.69-4.18 7-6.31 4.47-4.08 9.06-7.94 13.77-11.74 2.04-1.67 4.04-3.36 6.02-5.09 9.09-7.98 18.62-15.25 28.36-22.42 2.42-1.8 4.83-3.6 7.23-5.42 24.96-18.77 51.71-34.89 79.31-49.46.86-.46 1.72-.91 2.61-1.39 66.5-34.99 141.17-53 216.01-56.24l2.77-.12c17.91-.66 35.83-.27 53.73.5ZM2770.379-.316c3.65 0 7.31-.02 10.96-.05 16.4-.04 32.41 1.14 48.66 3.37.75.1 1.51.2 2.28.31 3.86.53 7.7 1.17 11.53 1.87 1.14.21 2.28.42 3.45.63 60.78 11.6 118.44 38.58 166.74 77.19 1.43 1.13 1.43 1.13 2.89 2.3 5.32 4.3 10.48 8.74 15.53 13.36 1.39 1.26 2.79 2.51 4.22 3.73 6.05 5.16 11.65 10.75 17.26 16.38 1.66 1.66 3.33 3.32 4.99 4.98 5.58 5.57 11.02 11.22 16.11 17.25.85.96 1.69 1.92 2.56 2.92 8.32 9.65 15.92 19.8 23.44 30.08.8 1.09.8 1.09 1.62 2.2 53.85 73.95 87.18 161.76 105.38 255.8.14.73.28 1.47.43 2.24 3.54 18.74 6.18 37.55 8.32 56.51.1.87.2 1.75.31 2.66 3.3 29.1 4.32 58.12 4.26 87.37-.01 2.57-.01 5.14-.01 7.71-.03 25.17-.52 50.19-3.08 75.26-.23 2.28-.45 4.56-.67 6.84-8.08 84.87-28.3 168.85-78.56 293.41-.29.63-.58 1.26-.88 1.92-9.33 20.43-19.2 40.44-30.12 60.08-.51.93-1.03 1.86-1.56 2.81-20.25 36.47-43.35 71.62-69.44 104.19-.71.89-1.41 1.78-2.14 2.69-1.95 2.45-3.9 4.88-5.86 7.31-.67.83-1.34 1.67-2.03 2.53-9.69 11.95-19.83 23.49-30.34 34.72-1.78 1.91-3.55 3.82-5.33 5.73-18.61 19.99-18.61 19.99-27.95 27.95-2.62 2.31-5.16 4.69-7.69 7.08-5.85 5.52-11.74 10.85-18.02 15.87-2.74 2.19-5.4 4.46-8.08 6.74-28.17 23.51-59.18 43.61-91.35 61.17-2.06 1.13-4.12 2.27-6.18 3.42-21.36 11.74-44.05 20.78-67.03 28.79-1.01.35-2.02.71-3.06 1.07-82.39 28.63-172.81 29.54-299.69-15.89-29.24-14.18-56.42-32.26-81.25-53.18-.52-.44-1.03-.87-1.57-1.31-14.96-12.53-29.86-25.72-42.57-40.55-2.15-2.48-4.38-4.87-6.61-7.27-5.25-5.77-10.06-11.82-14.8-18-1.43-1.85-2.88-3.67-4.33-5.49-22.04-27.84-40.24-58.71-56.12-90.38-.79-1.59-.79-1.59-1.6-3.2-12.75-25.55-23.13-51.82-32.4-78.8-.37-1.05-.73-2.1-1.11-3.19-12.4-35.54-20.71-72.71-26.89-109.81-.17-1.04-.17-1.04-.35-2.11-3.63-21.57-5.94-43.23-7.85-65.02-.07-.75-.13-1.49-.2-2.26-1.22-14.32-1.77-28.59-1.8-42.95-.01-1.73-.02-3.45-.02-5.17-.02-5.48-.03-10.95-.03-16.43v-2.83c-.01-26.71.11-53.29 3-79.87.27-2.51.52-5.02.77-7.53 6.85-68.05 21.37-134.8 42.48-199.83.21-.66.43-1.32.64-1.99 18.6-57.42 43.53-114.11 74.36-166.01.49-.83.98-1.66 1.48-2.52 24.93-42.46 53.25-83.98 86.59-120.37 1.8-1.97 3.56-3.97 5.31-5.99 9.44-10.8 19.38-21.04 29.54-31.17 2.28-2.28 4.55-4.56 6.83-6.84 1.47-1.47 2.95-2.94 4.42-4.42.67-.67 1.34-1.33 2.02-2.03 4.45-4.42 9.06-8.58 13.81-12.66 1.17-1.03 2.34-2.05 3.5-3.07 66.37-58.05 147.25-105.32 251-125.25 1.09-.18 1.09-.18 2.21-.37 19.91-3.33 39.48-4.67 59.67-4.63ZM1592 123l1.53 1.27c7.53 6.27 14.84 12.72 22.02 19.39 1.39 1.28 2.79 2.55 4.2 3.81 6.54 5.89 12.83 12 19.06 18.22l2.43 2.41c4.22 4.24 8.29 8.55 12.19 13.08 2.25 2.61 4.6 5.11 6.95 7.63 4.21 4.57 8.22 9.25 12.12 14.1 1.9 2.35 3.81 4.68 5.75 7 7.35 8.82 14.46 17.78 21.25 27.04 1.01 1.38 2.02 2.76 3.04 4.13 9.36 12.63 18.02 25.66 26.46 38.92.57.89 1.14 1.78 1.72 2.7 8.56 13.51 16.56 27.3 24.28 41.3.88 1.58.88 1.58 1.77 3.2 23.11 41.8 41.71 85.66 57.23 130.8.34.98.34.98.68 1.97 29.21 84.81 44.52 174.63-19.68 607.03-.67 1.44-.67 1.44-1.35 2.91-6.75 14.56-14.06 28.65-22.15 42.51-1.38 2.38-2.75 4.77-4.12 7.16-8.86 15.42-18.88 30.08-29.38 44.42-.46.64-.93 1.27-1.41 1.93-7.11 9.74-14.62 19.01-22.59 28.07-.66.76-1.31 1.52-1.99 2.3-1.66 1.91-3.33 3.8-5.01 5.7-.61.7-1.23 1.39-1.86 2.11-5.76 6.49-11.76 12.7-17.9 18.83-1.61 1.62-3.22 3.24-4.83 4.87-5.76 5.8-11.62 11.21-18.04 16.29-2.27 1.82-4.42 3.73-6.56 5.71-18.45 16.48-40.18 30.29-61.81 42.19-1.35.74-1.35.74-2.72 1.5-87.22 47.79-190.94 57.96-286.32 30.5-35.56-10.55-69.52-24.69-101.48-43.54-2.29-1.35-4.59-2.66-6.9-3.97-22.82-12.97-44.48-28.63-64.58-45.49-1.83-1.48-3.67-2.96-5.5-4.44-4.79-3.92-9.38-8.02-13.94-12.22-2.22-2.03-4.47-4-6.75-5.96-3.43-2.99-6.62-6.17-9.81-9.41-1.96-1.93-3.98-3.74-6.06-5.53-5.87-5.06-11.07-10.54-16.12-16.4-1.87-2.1-3.82-4.07-5.82-6.04-3.88-3.84-7.46-7.86-11-12-.91-1.04-1.81-2.08-2.72-3.12a495.477 495.477 0 0 1-17.5-21.33c-1.88-2.41-3.78-4.8-5.71-7.17-20-24.55-37.94-51.65-53.74-79.08-1.38-2.39-2.78-4.78-4.19-7.16-8.62-14.74-16.46-29.89-24.14-45.14l-1.79-3.55C934.37 962.86 921.9 932.25 911 901c-.24-.68-.47-1.35-.72-2.05-25.71-73.34-40.97-149.66-47.52-227.04-.06-.74-.12-1.48-.19-2.23-1.19-14.56-1.74-29.08-1.77-43.68-.01-1.68-.02-3.35-.02-5.03-.02-5.32-.03-10.65-.03-15.97v-2.75c-.01-26.39.12-52.66 3-78.92.26-2.45.52-4.91.77-7.36C872.85 436.03 892.83 356.9 927 284c.44-.96.89-1.91 1.34-2.9 6.76-14.56 14.08-28.66 22.17-42.53 1.36-2.34 2.7-4.69 4.04-7.05 13.31-23.24 28.92-45.19 46.02-65.78 1.27-1.54 2.51-3.1 3.75-4.65 9.73-12.2 20.74-23.24 31.72-34.3 1.08-1.09 2.16-2.19 3.24-3.28 6.91-6.99 14.03-13.39 21.72-19.51 1.1-.93 2.2-1.88 3.29-2.83 8.8-7.67 18.14-14.48 27.71-21.17.62-.44 1.24-.87 1.88-1.32C1144.54 43.22 1203.7 21.31 1265 14c.96-.12 1.92-.23 2.91-.35C1363.17 2.51 1459.58 32.55 1592 123ZM3712.438 1026.75h3.14c54.36.05 108.16 10.93 157.42 34.25 1.5.71 1.5.71 3.03 1.43 25.78 12.32 49.89 27.4 71.97 45.57.55.45 1.09.89 1.65 1.35 11.25 9.27 21.9 19.12 32.23 29.4.6.6 1.21 1.2 1.83 1.82 4.3 4.31 8.34 8.8 12.29 13.43.55.64 1.09 1.28 1.66 1.94 18.68 22.05 34.41 45.76 48.34 71.06.75 1.35.75 1.35 1.51 2.73 30.99 56.61 47.53 119.55 55.49 183.27.09.72.19 1.44.28 2.19 5.74 45.52 5.13 94.29-.28 139.81-.13 1.13-.13 1.13-.26 2.28a770.738 770.738 0 0 1-10.74 66.72c-.26 1.26-.52 2.53-.79 3.83-12.89 61.74-34.69 121.34-62.56 177.83-1.52 3.08-3.02 6.16-4.52 9.25-18.94 38.68-42.3 75.62-68.13 110.09-.52.7-1.05 1.41-1.59 2.13-13.63 18.15-28.01 35.72-43.28 52.52a475.28 475.28 0 0 0-4.23 4.73c-5.89 6.66-12.12 12.94-18.45 19.19-3.63 3.58-7.22 7.21-10.81 10.83-1.65 1.66-3.3 3.32-4.95 4.97-.82.83-1.63 1.66-2.47 2.5-4.91 4.93-9.93 9.62-15.22 14.13-1.17 1.02-2.33 2.05-3.5 3.07-73.56 64.33-160.76 112.65-332.78 143.13l-3.41.02c-3.6.02-7.2.03-10.81.03h-3.73c-18.13-.01-35.83-.43-53.77-3.25-1.68-.25-1.68-.25-3.39-.5-35.58-5.37-70.19-15.87-102.61-31.5-.81-.39-1.62-.77-2.46-1.17-25.72-12.25-49.56-27.71-71.54-45.83-.55-.46-1.1-.91-1.67-1.38-13.8-11.43-27.16-23.59-38.97-37.08-1.45-1.65-2.92-3.28-4.39-4.91-66.03-74.05-99.9-173.25-110.95-370.09 4.92-82.51 24.61-164.49 59.98-246.54.3-.68.6-1.36.9-2.07 13.19-30.28 28.02-59.65 45.1-87.93.61-1.01 1.21-2.02 1.84-3.06 6.48-10.8 13-21.56 20.16-31.94.83-1.21 1.65-2.42 2.47-3.64 10.33-15.18 21.05-30.03 32.53-44.36.69-.87 1.37-1.74 2.08-2.63 4.15-5.25 8.44-10.38 12.78-15.47 3.02-3.55 5.97-7.14 8.89-10.77 3.02-3.72 6.15-7.15 9.59-10.47 1.74-1.73 3.32-3.54 4.91-5.41 3.38-3.92 7.02-7.55 10.7-11.18 2.67-2.64 5.2-5.33 7.61-8.2 3.31-3.87 7.01-7.15 10.83-10.51 2.67-2.41 5.21-4.92 7.74-7.49 4.13-4.17 8.41-8.05 12.87-11.87 1.09-.95 2.18-1.91 3.27-2.86 40.7-35.65 85.37-65.86 133.73-90.14l3.19-1.61c65.11-32.66 137.27-51.6 210.25-51.64ZM658 1114c1.08.76 1.08.76 2.17 1.53a487.608 487.608 0 0 1 30.12 23.06c2.33 1.92 4.71 3.79 7.09 5.66 4.23 3.38 8.26 6.96 12.26 10.61 2.06 1.86 4.13 3.7 6.24 5.52 9.73 8.5 19.05 17.39 28.18 26.55 1.76 1.77 3.54 3.54 5.31 5.31 5.76 5.75 11.35 11.56 16.63 17.76a613.5 613.5 0 0 0 4.88 5.31c4.92 5.4 9.53 11 14.12 16.69.97 1.18 1.95 2.37 2.93 3.55 18.17 22.05 34.82 45.29 50.07 69.45.5.78 1 1.57 1.51 2.38 45.77 72.14 78.89 152 118.05 378.18.07 1.94.07 1.94.13 3.92 2.9 91.77-13.15 185.07-125.69 376.52-.5.55-1.01 1.11-1.52 1.68-11.51 12.65-11.51 12.65-17.41 17.57-2.13 1.8-4.15 3.68-6.18 5.59-6.96 6.51-14.28 12.43-21.89 18.16-.67.51-1.35 1.02-2.04 1.54-77.21 57.93-173.68 80.84-272.78 67.92-8.44-1.26-16.81-2.79-25.18-4.46-1.06-.21-2.12-.42-3.22-.64-80.27-16.21-155.38-57.02-218.05-108.93-2.47-2.04-4.98-4.04-7.48-6.05-5-4.09-9.74-8.43-14.47-12.82-2.29-2.11-4.6-4.16-6.97-6.18-3.72-3.23-7.15-6.71-10.61-10.22-1.9-1.87-3.84-3.58-5.89-5.28-5.94-5.12-11.09-11.05-16.39-16.81-1.94-2.09-3.88-4.15-5.84-6.21-6.21-6.55-12.3-13.11-17.92-20.18-1.97-2.44-3.99-4.83-6.03-7.2-6.46-7.52-12.5-15.32-18.45-23.24-1.11-1.47-2.22-2.95-3.33-4.42-21.04-27.76-39.55-57.33-56.35-87.82-.59-1.07-1.18-2.13-1.79-3.23C70.72 1815.85 53.26 1775.11 39 1733l-1.23-3.59c-16.62-48.94-27.88-99.61-34.02-150.91-.15-1.25-.3-2.5-.46-3.78-.48-4.24-.9-8.47-1.29-12.72-.09-.95-.17-1.89-.26-2.86-1.7-18.98-2.09-37.85-2.06-56.89.01-3.15 0-6.3-.02-9.46-.1-17.41.24-34.68 1.72-52.04.06-.72.12-1.44.19-2.19 5.93-68.08 22.39-137.68 54.33-198.44 1.29-2.48 2.54-4.97 3.8-7.46 22.89-45.02 55.52-91.16 95.66-122.57 2.43-1.92 4.77-3.92 7.11-5.96 75.26-65.25 180.22-89.99 495.53 9.87Z"/></svg>